<svg xmlns="http://www.w3.org/2000/svg" viewBox="0 0 24 24">
  <!-- Boet nest mark — Moss rounded square, WarmWhite egg + nest
       (paths from android/.../drawable/ic_stat_boet.xml). -->
  <rect width="24" height="24" rx="5" fill="#6B7F64"/>
  <g transform="translate(2.4 2.4) scale(0.8)">
    <path fill="#F7F6F2" d="M12,7m-3,0a3,3 0,1 1,6 0a3,3 0,1 1,-6 0"/>
    <path fill="#F7F6F2" d="M3,14c0,-1 2,-2 9,-2s9,1 9,2c0,3 -4,5 -9,5s-9,-2 -9,-5zM5.2,14.4c0.8,1.6 3.4,2.6 6.8,2.6s6,-1 6.8,-2.6c-1.6,-0.5 -4,-0.7 -6.8,-0.7s-5.2,0.2 -6.8,0.7z"/>
  </g>
</svg>
